<svg width="192" height="122" viewBox="0 0 192 122" fill="none" xmlns="http://www.w3.org/2000/svg">
<path fill-rule="evenodd" clip-rule="evenodd" d="M68.692 4H58.0581L63.3081 16H73.942L68.692 4ZM73.0581 4L78.3081 16H88.942L83.692 4H73.0581ZM103.942 16H93.3081L88.0581 4H98.692L103.942 16ZM108.308 16H118.942L113.692 4H103.058L108.308 16ZM133.942 16H123.308L118.058 4H128.692L133.942 16ZM138.308 16H142V9C142 6.23857 139.761 4 137 4H133.058L138.308 16ZM50 9C50 6.66667 51.5983 4.70663 53.7598 4.155L58.942 16H50V9ZM146 16V20V71C146 75.9706 141.971 80 137 80H55C50.0294 80 46 75.9706 46 71V20V16V9C46 4.02944 50.0294 0 55 0H137C141.971 0 146 4.02944 146 9V16ZM50 20V71C50 73.7614 52.2386 76 55 76H137C139.761 76 142 73.7614 142 71V20H50ZM106 49L88 60V38L106 49Z" fill="#919191"/>
<path d="M12.474 102.024H14.364V118.512H12.474V102.024ZM1.692 103.392H3.564V107.586H7.722V103.392H9.594V114.606H1.692V103.392ZM3.564 109.062V113.076H7.722V109.062H3.564ZM29.0326 102.042H30.9226V118.53H29.0326V102.042ZM18.4126 112.932H19.7806C23.1286 112.932 25.1626 112.842 27.5026 112.41L27.6826 113.976C25.3066 114.426 23.1826 114.516 19.7806 114.516H18.4126V112.932ZM18.4126 103.554H26.2426V105.102H20.2846V113.526H18.4126V103.554ZM40.4252 111.312H42.2972V115.254H40.4252V111.312ZM41.3612 103.014C44.8532 103.014 47.4092 104.76 47.4092 107.424C47.4092 110.106 44.8532 111.834 41.3612 111.834C37.8872 111.834 35.3132 110.106 35.3132 107.424C35.3132 104.76 37.8872 103.014 41.3612 103.014ZM41.3612 104.508C38.9132 104.508 37.1492 105.642 37.1492 107.424C37.1492 109.224 38.9132 110.34 41.3612 110.34C43.8272 110.34 45.5732 109.224 45.5732 107.424C45.5732 105.642 43.8272 104.508 41.3612 104.508ZM33.9452 114.93H48.8492V116.478H33.9452V114.93ZM50.4858 109.566H65.3898V110.97H50.4858V109.566ZM52.2138 112.068H63.5718V115.758H54.1218V117.45H52.2498V114.516H61.7178V113.382H52.2138V112.068ZM52.2498 117H64.0758V118.314H52.2498V117ZM52.3578 102.438H63.5178V106.056H54.2478V107.64H52.3758V104.832H61.6638V103.734H52.3578V102.438ZM52.3758 107.226H63.8238V108.54H52.3758V107.226ZM79.3853 105.84H83.6693V107.37H79.3853V105.84ZM75.6053 102.762C78.0713 102.762 79.8893 104.364 79.8893 106.632C79.8893 108.9 78.0713 110.484 75.6053 110.484C73.1393 110.484 71.3213 108.9 71.3213 106.632C71.3213 104.364 73.1393 102.762 75.6053 102.762ZM75.6053 104.346C74.1653 104.346 73.1213 105.246 73.1213 106.632C73.1213 108 74.1653 108.918 75.6053 108.918C77.0453 108.918 78.0713 108 78.0713 106.632C78.0713 105.246 77.0453 104.346 75.6053 104.346ZM82.8413 102.042H84.7313V110.88H82.8413V102.042ZM74.0213 111.654H75.8933V113.49H82.8593V111.654H84.7313V118.296H74.0213V111.654ZM75.8933 114.966V116.784H82.8593V114.966H75.8933ZM87.6639 115.02H102.568V116.568H87.6639V115.02ZM94.1439 111.672H96.0159V115.65H94.1439V111.672ZM89.4099 103.194H100.786V108.396H91.3179V111.456H89.4459V106.902H98.9139V104.706H89.4099V103.194ZM89.4459 110.682H101.164V112.212H89.4459V110.682ZM106.041 109.8H117.453V111.312H106.041V109.8ZM104.223 114.822H119.127V116.37H104.223V114.822ZM106.041 103.482H117.309V105.03H107.913V110.448H106.041V103.482ZM120.745 104.706H128.773V106.218H120.745V104.706ZM124.777 107.154C126.847 107.154 128.341 108.738 128.341 110.988C128.341 113.238 126.847 114.804 124.777 114.804C122.725 114.804 121.213 113.238 121.213 110.988C121.213 108.738 122.725 107.154 124.777 107.154ZM124.777 108.738C123.679 108.738 122.887 109.638 122.887 110.988C122.887 112.356 123.679 113.22 124.777 113.22C125.875 113.22 126.667 112.356 126.667 110.988C126.667 109.638 125.875 108.738 124.777 108.738ZM132.985 102.042H134.785V118.494H132.985V102.042ZM130.645 108.864H133.579V110.394H130.645V108.864ZM129.493 102.384H131.257V117.738H129.493V102.384ZM123.859 102.51H125.713V105.642H123.859V102.51ZM143.694 103.752H145.332V104.364C145.332 107.28 142.542 109.53 138.852 110.088L138.132 108.612C141.354 108.18 143.694 106.308 143.694 104.364V103.752ZM144.216 103.752H145.836V104.364C145.836 106.308 148.194 108.18 151.398 108.612L150.696 110.088C146.988 109.53 144.216 107.28 144.216 104.364V103.752ZM143.784 112.338H145.656V118.494H143.784V112.338ZM137.34 111.276H152.208V112.806H137.34V111.276ZM138.69 102.978H150.804V104.49H138.69V102.978ZM160.36 107.766H163.33V109.314H160.36V107.766ZM157.102 103.536H158.56V106.506C158.56 110.07 157.3 113.544 154.798 115.074L153.646 113.652C155.968 112.248 157.102 109.314 157.102 106.506V103.536ZM157.498 103.536H158.92V106.434C158.92 109.08 159.928 111.852 162.124 113.238L161.062 114.714C158.596 113.184 157.498 109.782 157.498 106.434V103.536ZM166.138 102.042H167.938V118.494H166.138V102.042ZM162.79 102.348H164.554V117.702H162.79V102.348ZM173.931 110.466H175.803V115.236H173.931V110.466ZM179.961 110.466H181.851V115.236H179.961V110.466ZM170.457 114.93H185.361V116.478H170.457V114.93ZM177.873 102.978C181.383 102.978 183.921 104.67 183.921 107.298C183.921 109.908 181.383 111.6 177.873 111.6C174.363 111.6 171.825 109.908 171.825 107.298C171.825 104.67 174.363 102.978 177.873 102.978ZM177.873 104.454C175.389 104.454 173.661 105.552 173.661 107.298C173.661 109.026 175.389 110.124 177.873 110.124C180.357 110.124 182.085 109.026 182.085 107.298C182.085 105.552 180.357 104.454 177.873 104.454ZM188.87 117.252C188.078 117.252 187.484 116.64 187.484 115.794C187.484 114.93 188.078 114.336 188.87 114.336C189.644 114.336 190.256 114.93 190.256 115.794C190.256 116.64 189.644 117.252 188.87 117.252Z" fill="#919191"/>
</svg>
